<?xml version="1.0" encoding="iso-8859-1"?>
<!-- Generator: Adobe Illustrator 19.0.0, SVG Export Plug-In . SVG Version: 6.00 Build 0)  -->
<svg version="1.1" id="Layer_1" xmlns="http://www.w3.org/2000/svg" xmlns:xlink="http://www.w3.org/1999/xlink" x="0px" y="0px"
	 viewBox="0 0 473.654 473.654" style="enable-background:new 0 0 473.654 473.654;" xml:space="preserve">
<circle style="fill:#49A0AE;" cx="236.827" cy="236.827" r="236.827"/>
<path style="fill:#FFFFFF;" d="M370.057,207.969c-62.185,0-124.367,0-186.552,0c11.08-11.08,22.161-22.161,33.241-33.245
	c25.56-25.56-14.259-65.084-39.883-39.456c-27.011,27.011-54.018,54.022-81.029,81.033c-10.841,10.841-10.549,28.907,0.213,39.669
	c27.011,27.007,54.018,54.018,81.029,81.025c25.56,25.56,65.084-14.259,39.456-39.883c-11.013-11.013-22.026-22.026-33.039-33.035
	c62.054,0,124.109,0,186.16,0C405.878,264.077,406.196,207.969,370.057,207.969z"/>
<g>
</g>
<g>
</g>
<g>
</g>
<g>
</g>
<g>
</g>
<g>
</g>
<g>
</g>
<g>
</g>
<g>
</g>
<g>
</g>
<g>
</g>
<g>
</g>
<g>
</g>
<g>
</g>
<g>
</g>
</svg>
